<svg width="20" height="21" viewBox="0 0 20 21" fill="none" xmlns="http://www.w3.org/2000/svg">
<path d="M6.98775 18.5C8.15441 19.3333 10.9877 20.5 12.9877 18.5M11.5269 1.92399V1.92399C10.7378 0.937628 9.23765 0.937627 8.44856 1.92399L8.40119 1.98321C8.13251 2.31906 7.76106 2.55124 7.36396 2.71647C5.71055 3.40442 3.3728 5.24299 3.00596 8.74459C2.89291 9.82375 2.36663 10.8281 1.69816 11.6828C0.842547 12.7768 0.488942 14.2564 2.32899 15.5847C2.74237 15.8831 3.25529 16 3.76512 16H16.3511C16.7709 16 17.1959 15.9268 17.545 15.6936C18.671 14.9416 19.4885 13.4731 18.0728 11.2883C17.726 10.7532 17.4749 10.153 17.4 9.51982C16.8271 4.67409 14.4537 3.17999 12.7051 2.66843C12.2486 2.53487 11.8241 2.29543 11.5269 1.92399Z" stroke="black" stroke-width="2" stroke-linecap="round"/>
</svg>
